<?xml version="1.0" encoding="UTF-8"?>
<svg version="1.1" xmlns="http://www.w3.org/2000/svg" width="1000" height="934">
<path d="M0 0 C330 0 660 0 1000 0 C1000 308.22 1000 616.44 1000 934 C670 934 340 934 0 934 C0 625.78 0 317.56 0 0 Z " fill="#FEFEFE" transform="translate(0,0)"/>
<path d="M0 0 C31.02 0 62.04 0 94 0 C103.2674389 28.96074658 103.2674389 28.96074658 107.1875 42 C107.61749598 43.42507853 108.04759203 44.85012687 108.4777832 46.27514648 C111.90908901 57.65242823 115.28913715 69.0433031 118.5703125 80.46484375 C121.91868718 92.08258807 125.43792213 103.62586226 129.15722656 115.13037109 C131.24542305 121.60134024 133.2485704 128.08657707 135.1394043 134.61767578 C136.85279246 140.53224898 138.63868117 146.42338265 140.4375 152.3125 C142.62411461 159.47333974 144.79530066 166.6382496 146.9375 173.8125 C149.26939039 181.6176138 151.65909325 189.40413383 154.0625 197.1875 C156.4742863 205.00015417 158.8551445 212.81873653 161.13916016 220.66967773 C162.85309565 226.54592624 164.64398838 232.39761575 166.4375 238.25 C168.69005855 245.60258835 170.85997475 252.97115917 172.9375 260.375 C175.76511916 270.42886416 178.94523769 280.35979365 182.16796875 290.29296875 C182.78028736 292.19478477 183.39101086 294.09711523 184 296 C184.2985791 296.93021973 184.5971582 297.86043945 184.90478516 298.81884766 C185.17983887 299.69976074 185.45489258 300.58067383 185.73828125 301.48828125 C185.98231689 302.26341064 186.22635254 303.03854004 186.4777832 303.8371582 C187 306 187 306 187 310 C156.31 310 125.62 310 94 310 C89.58803775 296.21261796 85.26681383 282.62429713 81.3671875 268.72265625 C79.83170754 263.32681941 78.02878645 258.04291018 76.21484375 252.734375 C74.60521177 247.78643876 73.24097467 242.78480796 71.87475586 237.76538086 C69.7821613 230.1121599 67.41057484 222.5579392 65 215 C61.87498189 205.19390869 58.91513307 195.35704716 56.14282227 185.44458008 C54.77647633 180.58869607 53.29341977 175.79753318 51.67382812 171.02026367 C50.80317921 168.40989418 50.03939219 165.7787334 49.3125 163.125 C49.06113281 162.22007812 48.80976563 161.31515625 48.55078125 160.3828125 C48 158 48 158 48 155 C47.34 155 46.68 155 46 155 C45.81207886 156.5156958 45.81207886 156.5156958 45.62036133 158.06201172 C45.02476805 161.84277504 44.15187101 165.33843038 43.07421875 169.0078125 C42.88535599 169.6551535 42.69649323 170.30249451 42.50190735 170.9694519 C41.90158201 173.02264511 41.29457379 175.07379338 40.6875 177.125 C40.29189738 178.47643953 39.89671213 179.82800131 39.50195312 181.1796875 C36.29590769 192.12985697 32.97031865 203.04050513 29.46411133 213.8984375 C25.48526261 226.23437347 21.88387871 238.65903295 18.40234375 251.14306641 C17.87472948 253.03353046 17.34372028 254.92304606 16.8125 256.8125 C16.53019531 257.82957031 16.24789062 258.84664062 15.95703125 259.89453125 C15.26792356 262.13061539 14.48186971 264.33763723 13.63671875 266.51953125 C11.35086242 272.50982994 9.72897406 278.70659255 8 284.875 C3.93933836 299.27050348 3.93933836 299.27050348 2.3125 304.8203125 C2.08175781 305.60937988 1.85101563 306.39844727 1.61328125 307.21142578 C1 309 1 309 0 310 C-2.89143151 310.09523905 -5.75892064 310.12553027 -8.65063477 310.11352539 C-10.0114769 310.11374443 -10.0114769 310.11374443 -11.39981079 310.1139679 C-14.41369985 310.11326841 -17.42752793 310.10547434 -20.44140625 310.09765625 C-22.52505967 310.0957922 -24.60871354 310.09436824 -26.69236755 310.09336853 C-32.18823446 310.08954234 -37.68407513 310.0797112 -43.17993164 310.06866455 C-48.78336227 310.0584526 -54.38679713 310.05387137 -59.99023438 310.04882812 C-70.99350114 310.03808902 -81.99674839 310.02101139 -93 310 C-90.98006149 299.44763846 -90.98006149 299.44763846 -89.51953125 295.0546875 C-89.2460083 294.21744141 -88.97248535 293.38019531 -88.69067383 292.51757812 C-88.40087646 291.64552734 -88.1110791 290.77347656 -87.8125 289.875 C-82.74785988 274.30468083 -78.25564633 258.5653304 -73.82421875 242.8046875 C-72.61152384 238.67807637 -71.21365588 234.62192899 -69.81640625 230.5546875 C-67.48418221 223.71059079 -65.35725405 216.94437357 -63.7734375 209.87890625 C-63.14299881 207.53227334 -62.41272675 205.37812082 -61.54296875 203.1171875 C-60.08814649 199.32654749 -58.97033841 195.48661898 -57.9375 191.5625 C-55.4628814 182.42783384 -52.74189038 173.36954779 -50 164.3125 C-49.79075897 163.61843048 -49.58151794 162.92436096 -49.36593628 162.20925903 C-47.14876553 154.85985903 -44.87084754 147.54132794 -42.41015625 140.26953125 C-40.19656556 133.69147326 -38.25934864 127.0706921 -36.4375 120.375 C-35.83577778 118.19760065 -35.23292609 116.0205131 -34.62890625 113.84375 C-34.3467627 112.82667969 -34.06461914 111.80960937 -33.77392578 110.76171875 C-31.60756687 103.03116608 -29.14420362 95.41373882 -26.5625 87.8125 C-24.42021503 81.50055691 -22.61695178 75.1251705 -20.87524414 68.69262695 C-19.22392555 62.6541269 -17.27539738 56.76803733 -15.25 50.84375 C-13.83757433 46.60647299 -12.66692602 42.31019332 -11.5 38 C-9.6699976 31.24240587 -7.61653059 24.62798385 -5.30859375 18.015625 C-3.36884988 12.06321694 -1.7198896 6.01961359 0 0 Z " fill="#0368EA" transform="translate(359,267)"/>
<path d="M0 0 C30.69 0 61.38 0 93 0 C93.99 2.97 94.98 5.94 96 9 C96.55996561 10.66057231 97.12090547 12.32081705 97.68359375 13.98046875 C100.6124841 22.65970308 103.46112417 31.32712148 105.91015625 40.15625 C107.35422358 45.24930467 108.89344347 50.31149311 110.4375 55.375 C110.89249878 56.86737183 110.89249878 56.86737183 111.35668945 58.38989258 C113.45446534 65.25231873 115.58759494 72.10279864 117.76171875 78.94140625 C118.81699651 82.33212749 119.77923162 85.74605954 120.7421875 89.1640625 C123.47218916 98.76523699 126.46629233 108.2837938 129.4375 117.8125 C133.02777737 129.33126362 136.58425021 140.85468661 139.95385742 152.44018555 C140.89377955 155.63855301 141.8708468 158.82132196 142.875 162 C144.87190604 168.41920403 146.64596863 174.89590651 148.4375 181.375 C150.71300368 189.58688944 153.12300639 197.69366634 155.890625 205.75390625 C159.147107 215.28255604 161.90255579 224.98443319 164.78662109 234.63110352 C166.18505854 239.3045028 167.60677748 243.96904537 169.0625 248.625 C170.34001134 252.74432227 171.52226393 256.87830538 172.65063477 261.04003906 C175.20150058 270.44551254 178.0935182 279.71445853 181.14550781 288.96972656 C181.47131836 289.96713867 181.79712891 290.96455078 182.1328125 291.9921875 C182.42043457 292.86214355 182.70805664 293.73209961 183.00439453 294.62841797 C184.50371294 299.70580571 185.71598465 304.86393862 187 310 C155.98 310 124.96 310 93 310 C91.35 304.06 89.7 298.12 88 292 C86.515 288.04 86.515 288.04 85 284 C84.22129147 281.50386582 83.46911418 279.01269882 82.75 276.5 C82.54383057 275.79077393 82.33766113 275.08154785 82.12524414 274.35083008 C81.41365098 271.90146244 80.70655651 269.45082515 80 267 C75.28578658 250.48181654 75.28578658 250.48181654 70.015625 234.13671875 C68.62181143 229.83197916 67.41161388 225.480568 66.1875 221.125 C64.08263616 213.63685269 61.83030705 206.21358334 59.4375 198.8125 C57.33447573 192.30403186 55.33901011 185.79262777 53.5625 179.1875 C51.3201 170.86101053 48.68293186 162.67905292 46.02075195 154.47851562 C43.5127215 146.71186467 41.21131641 138.90483362 39.01025391 131.04638672 C37.49529468 125.65905407 35.81632378 120.36181527 33.9921875 115.0703125 C32.72263546 111.14169871 31.64428216 107.17121894 30.5625 103.1875 C29.05036965 97.62530929 27.42926549 92.14419912 25.5625 86.6875 C23.17659509 79.70985356 21.15823454 72.65429968 19.16259766 65.55639648 C17.58327305 59.96554658 15.86393751 54.45368497 13.98046875 48.95703125 C12.35676373 44.06004041 10.94276715 39.10202728 9.50390625 34.1484375 C8.32261089 30.08530978 7.11543365 26.03030911 5.90234375 21.9765625 C5.5372168 20.75396729 5.17208984 19.53137207 4.79589844 18.27172852 C4.06282266 15.81850817 3.32782755 13.36586047 2.59082031 10.91381836 C2.2553418 9.78854736 1.91986328 8.66327637 1.57421875 7.50390625 C1.27088623 6.49142822 0.96755371 5.4789502 0.6550293 4.43579102 C0 2 0 2 0 0 Z " fill="#0368EA" transform="translate(506,267)"/>
<path d="M0 0 C7.49246418 4.4256652 13.08264455 10.26791734 16.34765625 18.38671875 C17.45069833 22.69089008 17.47704152 26.89919443 17.4453125 31.3125 C17.44389755 32.06009079 17.4424826 32.80768158 17.44102478 33.57792664 C17.43545389 35.9517324 17.42290685 38.32544178 17.41015625 40.69921875 C17.40513748 42.31445176 17.40057524 43.92968625 17.39648438 45.54492188 C17.385494 49.4922243 17.36824957 53.43945522 17.34765625 57.38671875 C13.38765625 57.38671875 9.42765625 57.38671875 5.34765625 57.38671875 C5.34765625 56.06671875 5.34765625 54.74671875 5.34765625 53.38671875 C4.75597656 53.73605469 4.16429687 54.08539062 3.5546875 54.4453125 C2.76449219 54.90035156 1.97429688 55.35539063 1.16015625 55.82421875 C0.38285156 56.27667969 -0.39445313 56.72914063 -1.1953125 57.1953125 C-8.06196713 60.52493041 -16.9308339 60.37695848 -24.21484375 58.44921875 C-33.02047663 55.06608511 -39.0549143 47.97526166 -42.8125 39.55078125 C-45.52327572 32.56580568 -45.93056815 24.76493597 -43.81640625 17.5234375 C-39.64917958 8.53173699 -32.86064681 2.00062039 -23.65234375 -1.61328125 C-16.0116766 -4.1601703 -7.25616286 -3.36261206 0 0 Z " fill="#1F242E" transform="translate(729.65234375,632.61328125)"/>
<path d="M0 0 C8.08887343 4.62221339 13.46112796 10.76454251 16.5625 19.5625 C17.00238425 22.34752353 17.08701928 25.05846679 17.0625 27.875 C17.05822998 28.62048096 17.05395996 29.36596191 17.04956055 30.1340332 C16.85253094 36.54689445 15.26450138 41.27245347 11.5625 46.5625 C10.86125 47.635 10.16 48.7075 9.4375 49.8125 C1.65084239 57.26060728 -6.81868857 59.94610765 -17.3359375 59.84375 C-21.97490591 59.42308788 -25.4551214 57.89964883 -29.4375 55.5625 C-30.37722656 55.0365625 -30.37722656 55.0365625 -31.3359375 54.5 C-38.17765871 50.1977823 -42.38008121 43.27547183 -44.4375 35.5625 C-45.18111132 27.14066944 -45.76838503 18.59608562 -40.4375 11.5625 C-39.97472656 10.88960937 -39.51195312 10.21671875 -39.03515625 9.5234375 C-29.63405964 -2.75085489 -14.03303211 -6.31751887 0 0 Z " fill="#1F242E" transform="translate(356.4375,632.4375)"/>
<path d="M0 0 C2.59703184 1.50535219 2.59703184 1.50535219 5.6015625 2.41015625 C8.07172442 1.23856652 8.07172442 1.23856652 10.6015625 -0.46484375 C17.23592911 -4.71004858 22.93210198 -5.63586968 30.71875 -4.19921875 C37.92058819 -1.94322124 44.10633403 3.38165349 47.70703125 9.96606445 C49.99786756 14.67222168 50.12000071 18.78024662 49.9921875 23.94140625 C49.98652771 24.81792847 49.98086792 25.69445068 49.97503662 26.59753418 C49.95282886 29.36898813 49.9026641 32.1390999 49.8515625 34.91015625 C49.83147724 36.80076244 49.81323004 38.69138911 49.796875 40.58203125 C49.75301557 45.19191531 49.68409902 49.80080905 49.6015625 54.41015625 C45.3115625 54.41015625 41.0215625 54.41015625 36.6015625 54.41015625 C36.5718335 52.85905151 36.5718335 52.85905151 36.54150391 51.27661133 C36.46524023 47.42790006 36.37655536 43.57955665 36.28417969 39.73120117 C36.24597554 38.06786377 36.21110787 36.40444617 36.1796875 34.7409668 C36.13385016 32.34524945 36.07588783 29.95008016 36.015625 27.5546875 C36.00407379 26.81491165 35.99252258 26.0751358 35.98062134 25.3129425 C35.86602495 21.27375389 35.51466047 17.99957452 33.6015625 14.41015625 C29.75422309 11.02083343 26.60589616 9.70349437 21.56640625 9.9453125 C17.99806993 10.78951135 16.13493266 12.81499657 13.6015625 15.41015625 C11.96498496 18.68331134 12.3584818 22.31637856 12.28515625 25.91796875 C12.26437515 26.75858856 12.24359406 27.59920837 12.22218323 28.46530151 C12.15670811 31.1551686 12.0978123 33.84513468 12.0390625 36.53515625 C11.99587534 38.35678114 11.95226098 40.17839596 11.90820312 42 C11.80102882 46.46995019 11.69975565 50.94000011 11.6015625 55.41015625 C6.9815625 55.41015625 2.3615625 55.41015625 -2.3984375 55.41015625 C-2.40254639 54.25491455 -2.40665527 53.09967285 -2.41088867 51.90942383 C-2.43270074 47.61323756 -2.48701152 43.31796446 -2.55102539 39.0222168 C-2.57418738 37.16488412 -2.5885969 35.30742043 -2.59399414 33.44995117 C-2.60329712 30.77570125 -2.64431447 28.10350657 -2.69140625 25.4296875 C-2.6874736 24.60241653 -2.68354095 23.77514557 -2.67948914 22.92280579 C-2.78879992 18.57982461 -2.99710136 16.9080496 -5.81762695 13.40893555 C-9.74573265 10.36670668 -12.26193234 10.02332531 -17.13671875 10.046875 C-20.69410067 10.61826795 -22.25303488 12.66135915 -24.3984375 15.41015625 C-24.7284375 15.74015625 -25.0584375 16.07015625 -25.3984375 16.41015625 C-25.55860916 19.21992143 -25.65794284 22.00789221 -25.71484375 24.8203125 C-25.73562485 25.66234726 -25.75640594 26.50438202 -25.77781677 27.37193298 C-25.84340562 30.07208804 -25.90224026 32.77234342 -25.9609375 35.47265625 C-26.00411387 37.29883866 -26.04772786 39.12501079 -26.09179688 40.95117188 C-26.19909644 45.43739617 -26.30033716 49.92372175 -26.3984375 54.41015625 C-31.0184375 54.41015625 -35.6384375 54.41015625 -40.3984375 54.41015625 C-40.5229971 49.03914641 -40.61322452 43.66899614 -40.6730957 38.296875 C-40.69808029 36.47348363 -40.73208029 34.65019077 -40.77563477 32.82714844 C-41.26301009 11.88721098 -41.26301009 11.88721098 -33.48388672 3.2956543 C-23.35593787 -6.76358939 -11.86220806 -6.48283464 0 0 Z " fill="#20252E" transform="translate(252.3984375,634.58984375)"/>
<path d="M0 0 C0.70382812 0.55300781 1.40765625 1.10601563 2.1328125 1.67578125 C3.05707031 2.33126953 3.05707031 2.33126953 4 3 C6.8133742 2.29665645 8.65127593 1.26997993 10.9375 -0.5 C15.54626931 -3.85183222 20.63171125 -4.56782376 26.2109375 -4.44140625 C33.88475788 -3.22692207 40.90010977 0.92536701 45.81640625 6.8984375 C49.43945914 13.3314489 50.43503439 18.84623107 50.29296875 26.09375 C50.28872391 26.92588013 50.28447906 27.75801025 50.28010559 28.61535645 C50.26346307 31.24391593 50.22583976 33.87167667 50.1875 36.5 C50.17243444 38.29425967 50.15874933 40.0885315 50.14648438 41.8828125 C50.11360714 46.25551083 50.06192722 50.62762053 50 55 C45.38 55 40.76 55 36 55 C35.99589111 53.87505127 35.99178223 52.75010254 35.98754883 51.59106445 C35.96573322 47.40668275 35.91141903 43.22323815 35.84741211 39.03930664 C35.82425315 37.23047892 35.80984131 35.42151675 35.80444336 33.61254883 C35.79513804 31.00777617 35.75411645 28.40511176 35.70703125 25.80078125 C35.7109639 24.99538406 35.71489655 24.18998688 35.71894836 23.36018372 C35.60815492 19.07121914 35.3783113 17.46719098 32.58081055 14.01245117 C28.65640595 10.95229915 26.14265258 10.61313936 21.26171875 10.63671875 C17.70433683 11.2081117 16.14540262 13.2512029 14 16 C13.505 16.495 13.505 16.495 13 17 C12.83982834 19.80976518 12.74049466 22.59773596 12.68359375 25.41015625 C12.66281265 26.25219101 12.64203156 27.09422577 12.62062073 27.96177673 C12.55503188 30.66193179 12.49619724 33.36218717 12.4375 36.0625 C12.39432363 37.88868241 12.35070964 39.71485454 12.30664062 41.54101562 C12.19934106 46.02723992 12.09810034 50.5135655 12 55 C7.38 55 2.76 55 -2 55 C-2.01458252 53.90534424 -2.02916504 52.81068848 -2.04418945 51.68286133 C-2.10228739 47.61043095 -2.17951927 43.53854685 -2.26245117 39.46655273 C-2.29564654 37.70622645 -2.32369524 35.94579512 -2.34643555 34.18530273 C-2.3800812 31.65042475 -2.4324006 29.11650477 -2.48828125 26.58203125 C-2.49467117 25.79850784 -2.5010611 25.01498444 -2.50764465 24.2077179 C-2.62951035 19.6493952 -3.17996493 16.63152163 -6 13 C-10.00955952 10.29416229 -14.32676807 10.31570533 -19 11 C-22.59222129 13.14004673 -24.53471486 15.11862956 -26 19 C-26.23618702 21.78433032 -26.37207848 24.4785743 -26.4140625 27.265625 C-26.43342865 28.05902283 -26.4527948 28.85242065 -26.4727478 29.66986084 C-26.53238361 32.19646557 -26.57886443 34.72311625 -26.625 37.25 C-26.66319455 38.96616537 -26.70224715 40.68231187 -26.7421875 42.3984375 C-26.83807186 46.59880456 -26.92216167 50.79926134 -27 55 C-31.29 55 -35.58 55 -40 55 C-40.09968046 49.77137669 -40.17184747 44.54331956 -40.21972656 39.31396484 C-40.23970839 37.53912711 -40.26690355 35.76435406 -40.30175781 33.98974609 C-40.70647314 12.83741862 -40.70647314 12.83741862 -33.88671875 4.37890625 C-22.81336117 -4.76693971 -12.9746965 -6.80602501 0 0 Z " fill="#1F242E" transform="translate(423,634)"/>
<path d="M0 0 C7.20652187 4.30354133 11.88545394 9.59891075 15.2109375 17.3203125 C16.2109375 21.3203125 16.2109375 21.3203125 16.2109375 34.3203125 C0.3709375 34.3203125 -15.4690625 34.3203125 -31.7890625 34.3203125 C-30.7990625 35.9703125 -29.8090625 37.6203125 -28.7890625 39.3203125 C-28.7890625 39.9803125 -28.7890625 40.6403125 -28.7890625 41.3203125 C-27.891875 41.7534375 -27.891875 41.7534375 -26.9765625 42.1953125 C-24.7890625 43.3203125 -24.7890625 43.3203125 -21.7890625 45.3203125 C-18.79198136 45.67712157 -18.79198136 45.67712157 -15.4765625 45.6328125 C-13.81173828 45.65794922 -13.81173828 45.65794922 -12.11328125 45.68359375 C-8.73563789 45.51338903 -8.73563789 45.51338903 -5.83203125 43.8125 C-2.12393485 41.99415234 0.48255902 42.01667915 4.5859375 42.1328125 C5.83117187 42.15988281 7.07640625 42.18695312 8.359375 42.21484375 C9.30039062 42.24964844 10.24140625 42.28445313 11.2109375 42.3203125 C10.42431057 48.12542007 7.65371367 50.73715394 3.2109375 54.3203125 C-4.5276117 59.11015801 -11.74867431 60.10158062 -20.7890625 59.3203125 C-29.16724631 57.32779314 -35.84469263 52.79139267 -40.58203125 45.59765625 C-45.2044353 37.43982678 -47.22128149 29.94916389 -45.2109375 20.64453125 C-42.33567803 11.40449285 -36.51011054 4.14730101 -28.1640625 -0.8046875 C-19.39220067 -4.64408497 -8.59061522 -4.08125573 0 0 Z " fill="#20252F" transform="translate(527.7890625,632.6796875)"/>
<path d="M0 0 C8.45696521 4.87157619 13.58753846 10.98477609 16.77734375 20.17163086 C18.38227095 27.1028603 17.96952452 34.17723044 17.8125 41.25 C17.79239014 42.83786792 17.77414735 44.42576063 17.7578125 46.01367188 C17.71420356 49.86390506 17.64543069 53.71292129 17.5625 57.5625 C12.9425 57.5625 8.3225 57.5625 3.5625 57.5625 C3.55839111 56.53890381 3.55428223 55.51530762 3.55004883 54.46069336 C3.52816264 50.63776318 3.4737769 46.81584845 3.40991211 42.9934082 C3.38681424 41.34376814 3.37235574 39.69398233 3.36694336 38.04418945 C3.35759274 35.66265911 3.31647601 33.28339499 3.26953125 30.90234375 C3.2734639 30.17289047 3.27739655 29.44343719 3.28144836 28.69187927 C3.12515982 23.12081966 1.33758064 19.64700704 -2.4375 15.5625 C-7.73477557 11.55724286 -14.06807361 11.77507091 -20.4375 12.5625 C-24.91620656 14.72187638 -27.61948188 17.49202939 -30.4375 21.5625 C-31.59589043 25.03767129 -31.66551218 28.2352002 -31.75390625 31.85546875 C-31.77468735 32.56149734 -31.79546844 33.26752594 -31.81687927 33.99494934 C-31.88217491 36.24653551 -31.94116647 38.49823662 -32 40.75 C-32.04320425 42.2780066 -32.08681916 43.80600164 -32.13085938 45.33398438 C-32.23783574 49.07670562 -32.33915922 52.8195423 -32.4375 56.5625 C-36.7275 56.5625 -41.0175 56.5625 -45.4375 56.5625 C-45.56218733 51.61874332 -45.6523439 46.67592493 -45.7121582 41.73095703 C-45.73712211 40.05306023 -45.77110619 38.37527014 -45.81469727 36.69775391 C-46.10349886 25.28839202 -45.58442447 17.36342615 -38.48046875 7.9765625 C-27.94514445 -2.18170808 -13.80824302 -6.37574487 0 0 Z " fill="#20252E" transform="translate(599.4375,632.4375)"/>
<path d="M0 0 C19.47 0 38.94 0 59 0 C59 4.62 59 9.24 59 14 C51.41 14 43.82 14 36 14 C36 28.85 36 43.7 36 59 C31.71 59 27.42 59 23 59 C23 44.15 23 29.3 23 14 C15.41 14 7.82 14 0 14 C0 9.38 0 4.76 0 0 Z " fill="#20252F" transform="translate(621,630)"/>
<path d="M0 0 C5.71000489 2.57527437 10.34622742 6.25015941 13 12 C14.63311509 18.28534424 14.26688917 23.22968245 11.30859375 29.0234375 C8.50499341 33.25812936 4.65880115 36.01569581 0 38 C-6.34265648 39.02474892 -11.08606595 38.15984406 -16.3125 34.4296875 C-20.31138692 31.04174164 -23.6277584 26.92958976 -24.30078125 21.6328125 C-24.32555434 16.33137223 -24.15061385 12.47183902 -21 8 C-14.70397226 1.67355666 -9.10973411 -1.52051199 0 0 Z " fill="#FAFAFA" transform="translate(721,642)"/>
<path d="M0 0 C4.5703729 2.848966 8.29472727 5.82461103 10.4375 10.85546875 C11.19924283 17.2859954 11.41189989 23.47079793 7.4375 28.85546875 C2.42619648 33.86677227 -1.14753716 35.99523693 -8.375 36.16796875 C-13.63040476 36.11725314 -16.58864201 35.53128739 -20.5625 31.85546875 C-25.58728417 26.27237523 -27.10268682 22.13576953 -26.93359375 14.67578125 C-26.22518465 9.29187206 -23.75090185 5.88543427 -19.8359375 2.25390625 C-13.8640554 -2.14513448 -6.82737783 -3.04942333 0 0 Z " fill="#FBFBFB" transform="translate(350.5625,643.14453125)"/>
<path d="M0 0 C4.1359999 2.61789227 7.50627971 5.17043786 9.39453125 9.828125 C9.39453125 10.818125 9.39453125 11.808125 9.39453125 12.828125 C-2.15546875 12.828125 -13.70546875 12.828125 -25.60546875 12.828125 C-24.35490623 6.57531241 -22.00860883 3.54465363 -16.98046875 -0.046875 C-11.23821906 -1.96095823 -5.63615772 -2.53500347 0 0 Z " fill="#F7F7F7" transform="translate(521.60546875,643.171875)"/>
<path d="M0 0 C0.66 0 1.32 0 2 0 C2.66 2.97 3.32 5.94 4 9 C33.7 9 63.4 9 94 9 C93.505 5.535 93.505 5.535 93 2 C95 4 95 4 96 11 C65.31 11 34.62 11 3 11 C0 2 0 2 0 0 Z " fill="#3081F3" transform="translate(450,566)"/>
<path d="M0 0 C2 2 2 2 3 7 C-28.02 7 -59.04 7 -91 7 C-91 5.35 -91 3.7 -91 2 C-90.67 2.99 -90.34 3.98 -90 5 C-60.3 5 -30.6 5 0 5 C0 3.35 0 1.7 0 0 Z " fill="#3081F3" transform="translate(690,570)"/>
<path d="M0 0 C0.99 0.495 0.99 0.495 2 1 C1.34 2.98 0.68 4.96 0 7 C-30.69 7 -61.38 7 -93 7 C-92.67 6.01 -92.34 5.02 -92 4 C-61.97 4.33 -31.94 4.66 -1 5 C-0.67 3.35 -0.34 1.7 0 0 Z " fill="#3081F3" transform="translate(359,570)"/>
</svg>
